<?xml version="1.0" standalone="no"?>
<!DOCTYPE svg PUBLIC "-//W3C//DTD SVG 20010904//EN"
 "http://www.w3.org/TR/2001/REC-SVG-20010904/DTD/svg10.dtd">
<svg version="1.0" xmlns="http://www.w3.org/2000/svg"
 width="984.000000pt" height="984.000000pt" viewBox="0 0 984.000000 984.000000"
 preserveAspectRatio="xMidYMid meet">
<metadata>
Created by potrace 1.14, written by Peter Selinger 2001-2017
</metadata>
<g transform="translate(0.000000,984.000000) scale(0.100000,-0.100000)"
fill="#000000" stroke="none">
<path d="M4598 9835 c-2 -1 -41 -5 -88 -9 -47 -4 -98 -9 -114 -12 -15 -2 -47
-7 -70 -9 -60 -5 -101 -12 -246 -39 -14 -3 -36 -7 -50 -10 -55 -12 -76 -17
-95 -21 -11 -2 -56 -13 -100 -25 -44 -12 -87 -23 -95 -25 -31 -6 -352 -117
-378 -131 -15 -8 -35 -14 -44 -14 -10 0 -18 -4 -18 -9 0 -5 -12 -12 -27 -15
-56 -14 -436 -197 -448 -216 -4 -6 -11 -8 -16 -5 -5 4 -9 2 -9 -2 0 -5 -12
-14 -27 -20 -16 -7 -50 -26 -78 -43 -27 -17 -59 -34 -70 -39 -12 -5 -27 -16
-34 -25 -7 -9 -17 -16 -22 -16 -8 0 -73 -40 -96 -60 -7 -5 -17 -10 -23 -10 -5
0 -10 -4 -10 -10 0 -5 -5 -10 -10 -10 -26 0 -508 -364 -518 -391 -2 -5 -8 -9
-13 -9 -5 0 -17 -8 -27 -17 -60 -57 -122 -112 -122 -108 0 10 -487 -480 -556
-560 -38 -43 -78 -89 -89 -100 -11 -12 -38 -44 -60 -71 -21 -27 -42 -51 -45
-54 -3 -3 -25 -30 -50 -60 -24 -30 -52 -64 -62 -75 -34 -38 -229 -296 -252
-333 -32 -51 -37 -78 -25 -133 13 -61 58 -106 141 -141 34 -15 84 -36 111 -47
26 -12 68 -30 95 -42 61 -26 74 -32 155 -68 38 -17 101 -45 140 -61 105 -44
101 -40 79 -91 -18 -42 -62 -163 -66 -184 -2 -5 -8 -28 -14 -50 -6 -22 -14
-55 -17 -74 -3 -19 -8 -38 -11 -43 -3 -5 -7 -21 -10 -36 -5 -33 -14 -89 -20
-121 -3 -13 -7 -43 -9 -65 -2 -23 -6 -70 -10 -106 -4 -36 -8 -99 -9 -140 -1
-42 -6 -81 -10 -88 -4 -7 -4 -12 1 -12 10 0 10 -71 0 -87 -4 -6 -3 -14 2 -18
7 -4 7 -15 1 -30 -5 -14 -6 -25 -2 -25 9 0 7 -335 -2 -374 -14 -60 -76 -206
-166 -391 -50 -104 -108 -224 -128 -265 -20 -41 -41 -78 -46 -82 -6 -4 -8 -8
-5 -8 9 0 -188 -400 -206 -420 -8 -8 -14 -18 -14 -23 0 -4 -7 -20 -15 -35 -8
-15 -26 -63 -41 -107 -33 -97 -43 -263 -19 -330 7 -22 14 -45 14 -52 0 -25 76
-140 119 -180 50 -47 148 -103 178 -103 11 0 23 -3 27 -7 3 -4 21 -8 39 -10
18 -2 55 -5 82 -8 28 -2 106 -7 175 -10 68 -3 126 -8 129 -11 3 -2 6 -78 7
-167 2 -185 12 -440 19 -477 2 -14 7 -70 10 -125 6 -122 12 -186 26 -290 17
-123 24 -170 39 -256 11 -62 10 -69 -13 -120 -26 -56 -67 -163 -72 -189 -2 -8
-4 -15 -5 -15 -1 0 -3 -9 -5 -20 -2 -11 -11 -54 -20 -95 -60 -285 24 -543 229
-705 47 -37 192 -116 217 -118 11 -1 19 -4 19 -7 0 -4 6 -7 13 -8 6 -1 37 -8
67 -17 30 -9 62 -18 71 -20 47 -10 98 -18 126 -19 18 0 33 -3 33 -6 0 -3 27
-5 61 -5 33 0 63 -3 65 -7 3 -4 16 -3 29 2 14 5 25 6 25 2 0 -8 52 -7 215 2
157 9 183 12 340 38 39 6 81 12 95 14 14 1 25 3 25 4 0 2 49 13 120 25 22 4
54 10 70 15 17 4 57 13 90 20 33 7 67 15 75 18 22 8 53 14 75 16 22 1 23 -6
11 -139 -7 -74 -9 -87 -26 -175 -16 -77 -19 -92 -27 -120 -3 -14 -8 -52 -9
-85 -2 -59 10 -88 51 -131 22 -23 75 -44 110 -44 72 0 158 64 170 127 2 10 4
19 5 21 3 3 20 78 26 117 1 6 3 13 4 18 4 12 6 20 14 70 4 27 9 59 12 70 8 44
21 226 23 327 l1 55 43 18 c23 9 45 17 49 17 4 0 19 5 35 12 15 6 30 12 33 13
24 8 68 27 82 35 10 6 22 10 28 10 22 0 338 158 427 214 357 221 488 393 643
846 18 52 37 99 41 104 5 6 9 20 9 31 0 12 3 25 8 29 4 4 7 11 8 14 0 4 4 16
9 27 4 11 27 72 52 135 24 63 60 148 79 188 19 40 34 77 34 81 0 5 9 20 21 35
11 14 17 26 12 26 -4 0 -3 4 2 8 6 4 23 27 38 51 16 23 44 57 63 74 58 50 83
120 63 175 -5 12 -5 22 1 22 5 0 11 -8 14 -18 8 -25 74 -90 108 -108 170 -88
436 112 725 546 90 134 163 256 163 269 0 6 4 11 9 11 5 0 15 15 22 33 7 17
28 56 45 85 18 29 63 115 101 190 37 75 71 139 74 142 7 6 21 45 17 46 -2 1 5
10 14 20 9 11 17 22 17 27 0 4 7 20 15 36 9 16 12 31 9 35 -4 3 -2 6 4 6 13 0
85 177 109 265 22 84 26 225 7 289 -34 115 -103 201 -213 266 -65 39 -194 87
-260 98 -47 8 -196 8 -245 0 -48 -8 -153 -44 -170 -58 -6 -5 -14 -8 -17 -5 -3
3 -11 -1 -18 -10 -7 -8 -17 -15 -22 -15 -11 0 -67 -41 -117 -85 -39 -35 -110
-134 -135 -188 -43 -93 -53 -144 -51 -254 2 -122 6 -142 35 -182 49 -70 158
-89 232 -40 60 39 72 70 74 189 2 127 14 161 83 226 92 87 220 111 353 67 41
-13 90 -37 108 -53 29 -25 33 -34 33 -77 1 -83 -21 -147 -109 -330 -35 -73
-64 -137 -64 -142 0 -5 -3 -11 -7 -13 -5 -1 -35 -57 -68 -123 -33 -66 -65
-127 -71 -135 -6 -8 -27 -44 -45 -80 -18 -36 -37 -66 -41 -68 -4 -2 -8 -8 -8
-13 0 -6 -27 -53 -60 -106 -33 -52 -60 -99 -60 -103 0 -5 -3 -10 -7 -12 -5 -1
-25 -29 -46 -60 -21 -31 -47 -67 -58 -79 -10 -12 -19 -25 -19 -29 0 -12 -84
-91 -114 -107 -23 -12 -33 -13 -52 -3 -19 11 -51 62 -44 72 1 2 -3 15 -9 31
-10 25 -16 70 -26 194 -5 61 -33 111 -76 140 -85 56 -188 34 -244 -52 -34 -54
-22 -264 31 -522 2 -12 9 -34 14 -48 5 -14 7 -25 4 -25 -4 0 -1 -7 6 -15 7 -8
9 -15 5 -15 -4 0 -2 -7 5 -15 7 -8 9 -15 6 -15 -4 0 0 -10 8 -22 27 -38 18
-37 -23 3 -38 35 -100 57 -141 50 -75 -14 -192 -131 -266 -266 -53 -97 -86
-163 -118 -240 -20 -49 -44 -104 -52 -122 -8 -17 -14 -36 -14 -42 0 -6 -4 -19
-10 -29 -8 -14 -54 -134 -64 -167 -2 -5 -6 -18 -10 -27 -4 -9 -8 -22 -10 -30
-1 -7 -4 -17 -7 -23 -4 -5 -14 -35 -24 -65 -10 -30 -21 -59 -25 -65 -5 -5 -9
-13 -9 -18 -2 -26 -15 -57 -23 -57 -5 0 -7 -3 -5 -8 3 -4 -4 -25 -15 -47 -11
-22 -21 -49 -24 -60 -2 -11 -8 -21 -14 -23 -5 -2 -10 -8 -10 -14 0 -16 -86
-140 -124 -178 -62 -62 -148 -130 -165 -130 -6 0 -11 -4 -11 -9 0 -5 -8 -11
-17 -15 -20 -6 -55 -27 -63 -37 -9 -12 -252 -134 -340 -171 -82 -35 -274 -108
-295 -112 -5 -1 -23 -7 -40 -13 -25 -10 -128 -42 -157 -49 -5 -1 -9 -2 -10 -4
-2 -1 -10 -3 -18 -5 -8 -1 -59 -15 -114 -30 -54 -15 -108 -29 -120 -31 -31 -6
-55 -11 -111 -24 -27 -6 -61 -14 -75 -16 -14 -2 -47 -9 -75 -14 -27 -6 -63
-12 -80 -15 -16 -2 -39 -6 -50 -8 -11 -3 -51 -8 -90 -12 -38 -4 -79 -9 -90
-11 -16 -4 -223 -16 -260 -15 -196 2 -367 33 -482 87 -140 67 -203 168 -198
320 2 44 3 79 5 79 1 0 8 34 14 75 1 9 4 20 8 25 3 6 8 24 12 40 8 31 40 110
84 204 31 67 34 101 16 183 -8 35 -17 81 -19 103 -3 22 -8 47 -11 55 -3 8 -8
33 -10 55 -15 136 -16 133 29 116 99 -38 325 -45 472 -16 53 11 180 57 187 69
4 6 8 7 8 2 0 -5 12 1 26 15 117 109 47 299 -110 299 -26 0 -59 -6 -74 -14
-87 -45 -270 -62 -382 -37 -80 19 -173 51 -189 66 -8 8 -15 31 -17 52 -8 87
-18 440 -15 516 1 13 7 16 23 12 54 -13 224 -13 255 0 68 29 106 85 106 159 0
80 -53 150 -122 162 -20 4 -45 8 -56 11 -21 4 -77 10 -180 19 -33 3 -134 8
-225 10 -241 7 -260 8 -260 18 0 5 -6 3 -13 -3 -8 -6 -17 -8 -20 -5 -3 3 -48
7 -100 9 -148 4 -191 37 -191 148 0 34 3 71 8 82 5 11 10 22 10 25 1 3 68 139
149 302 81 164 147 302 147 308 0 5 4 10 10 10 5 0 9 3 8 8 -1 4 29 70 67 147
38 77 69 142 70 145 0 3 17 39 37 80 51 105 73 156 98 225 54 146 53 138 55
520 1 198 5 385 9 415 3 30 9 78 12 105 3 28 10 73 16 100 5 28 11 64 14 81 6
48 52 201 84 279 30 75 25 73 105 60 124 -20 175 -23 325 -20 91 2 176 6 190
9 14 3 45 7 70 10 25 3 57 8 73 11 69 13 84 16 117 21 19 3 38 8 41 10 3 2 19
6 35 8 34 7 41 8 169 40 64 16 157 43 185 53 8 4 24 8 35 10 11 2 42 10 68 19
26 9 53 17 60 18 7 2 39 11 72 21 33 11 62 19 65 20 3 0 10 3 15 6 6 4 34 12
63 19 28 6 55 16 58 21 3 5 9 7 14 4 4 -3 27 2 51 11 24 8 51 17 59 19 8 1 35
9 60 16 25 7 50 13 55 14 6 2 34 10 63 18 29 9 54 16 57 17 3 0 6 0 8 1 1 0
11 2 22 4 25 4 61 12 83 19 9 3 33 8 52 10 19 3 50 8 68 12 25 5 31 4 27 -7
-4 -13 -7 -26 -20 -96 -6 -31 -13 -64 -20 -103 -5 -22 -10 -64 -20 -170 -6
-52 -6 -281 -1 -310 2 -14 7 -52 11 -85 4 -32 9 -68 12 -80 2 -11 6 -33 9 -48
2 -16 6 -33 9 -38 4 -5 8 -17 10 -26 20 -98 101 -277 180 -398 107 -166 266
-331 447 -465 29 -22 58 -43 63 -47 52 -42 247 -160 335 -204 39 -19 142 -19
148 0 2 6 10 11 17 11 20 0 61 58 73 103 8 29 7 50 -4 87 -17 57 -45 87 -114
121 -28 13 -50 27 -50 32 0 4 -5 7 -12 7 -13 0 -241 151 -297 197 -43 34 -229
219 -254 251 -63 81 -156 237 -163 275 -1 4 -3 9 -4 12 -1 3 -4 10 -5 15 -1 6
-4 12 -5 15 -1 3 -3 8 -5 13 -1 4 -4 14 -8 22 -13 34 -27 87 -32 125 -4 22 -8
48 -11 58 -4 14 -16 190 -15 232 0 27 11 154 16 185 3 19 7 52 10 72 2 21 8
52 14 70 5 18 12 47 15 63 6 39 32 133 56 208 38 116 17 195 -66 243 -45 26
-48 27 -167 21 -67 -4 -137 -9 -155 -11 -18 -3 -52 -8 -75 -11 -23 -4 -82 -15
-132 -26 -49 -11 -99 -21 -110 -23 -11 -2 -20 -4 -20 -6 0 -1 -11 -4 -25 -6
-14 -2 -117 -31 -230 -64 -113 -33 -215 -63 -228 -65 -13 -3 -40 -12 -60 -20
-20 -8 -48 -16 -62 -19 -14 -2 -44 -11 -67 -20 -24 -8 -43 -13 -43 -11 0 2
-16 -3 -36 -11 -33 -14 -385 -107 -449 -118 -17 -3 -41 -8 -55 -11 -186 -37
-421 -49 -562 -29 -99 15 -147 29 -233 72 -33 16 -78 37 -100 47 -69 30 -129
56 -150 65 -11 4 -41 17 -67 29 -26 12 -50 21 -52 21 -2 0 -26 10 -53 22 -26
11 -52 22 -58 24 -5 1 -29 11 -52 21 l-42 19 109 137 c60 76 115 143 122 151
7 7 33 38 58 67 25 30 61 72 81 94 20 22 51 57 70 79 57 64 360 369 430 432
166 150 283 250 369 315 19 15 46 36 59 48 13 11 27 21 30 21 3 0 20 11 36 25
58 47 71 56 190 135 66 44 125 83 130 88 28 22 400 232 410 232 2 0 55 25 120
55 64 30 119 55 123 55 4 0 18 6 32 13 14 7 79 32 145 56 66 24 129 47 140 52
20 8 153 47 167 49 4 1 22 6 40 11 18 6 40 12 49 14 8 2 44 10 80 19 56 13
117 25 209 42 115 20 169 27 330 41 93 8 456 8 530 -1 30 -3 78 -8 105 -10 80
-6 140 -16 300 -47 168 -34 163 -32 226 -52 35 -11 51 -11 65 -3 18 10 20 23
19 171 l0 160 -27 12 c-14 7 -41 16 -60 19 -49 7 -73 12 -73 14 0 1 -9 3 -20
5 -11 2 -45 8 -75 14 -56 12 -105 20 -150 26 -14 2 -25 4 -25 5 0 2 -29 6
-115 15 -41 4 -88 9 -105 12 -36 4 -562 13 -567 8z"/>
<path d="M8268 9255 c-2 -2 -27 -6 -55 -10 -73 -9 -239 -59 -253 -76 -3 -4
-15 -9 -27 -13 -13 -4 -29 -13 -35 -19 -7 -7 -33 -25 -58 -41 -56 -36 -69 -47
-193 -169 l-100 -98 -41 39 c-100 95 -120 113 -243 212 -7 6 -17 10 -23 10 -5
0 -10 4 -10 9 0 5 -8 11 -17 14 -10 4 -36 17 -58 30 -72 43 -185 79 -295 95
-58 8 -282 7 -340 -3 -80 -12 -242 -73 -324 -122 -70 -42 -204 -161 -246 -219
-63 -86 -123 -219 -147 -324 -17 -77 -23 -257 -11 -335 27 -170 56 -263 132
-420 46 -94 181 -310 219 -350 13 -14 30 -35 65 -79 94 -121 358 -386 617
-620 118 -107 265 -246 523 -495 106 -102 197 -186 201 -186 8 0 624 601 1060
1035 222 222 300 303 387 410 16 19 31 37 35 40 10 8 145 194 153 210 11 24
31 57 43 71 13 16 73 156 78 182 2 9 6 21 9 25 3 5 8 22 10 38 3 16 9 40 12
54 13 54 13 246 0 308 -7 34 -11 62 -8 62 3 0 1 5 -6 12 -7 7 -12 18 -12 26 0
32 -65 173 -115 247 -48 72 -142 174 -219 239 -106 88 -329 185 -466 202 -50
6 -238 13 -242 9z"/>
<path d="M8787 5684 c-3 -4 -22 -7 -42 -9 -19 -1 -38 -5 -42 -9 -4 -3 -8 -79
-10 -169 -1 -89 -5 -184 -7 -212 -3 -27 -8 -79 -11 -115 -3 -36 -8 -76 -10
-90 -3 -14 -8 -41 -11 -60 -3 -19 -10 -60 -15 -90 -6 -30 -13 -68 -16 -85 -8
-44 -11 -60 -13 -60 -2 0 -5 -14 -14 -54 -3 -13 -13 -49 -22 -80 -9 -31 -17
-63 -19 -71 -7 -33 -74 -220 -109 -305 -39 -93 -135 -289 -188 -385 -29 -53
-216 -340 -228 -350 -3 -3 -37 -45 -75 -95 -38 -49 -81 -102 -95 -116 -14 -15
-38 -42 -53 -60 -92 -108 -302 -310 -447 -429 -41 -34 -86 -71 -100 -83 -34
-30 -213 -159 -333 -240 l-98 -67 6 103 c14 233 14 230 -5 267 -22 43 -46 65
-90 83 -42 17 -117 12 -140 -8 -9 -8 -21 -15 -26 -15 -11 0 -50 -57 -58 -85
-3 -11 -8 -47 -11 -80 -3 -33 -8 -80 -10 -105 -19 -202 -25 -694 -11 -865 3
-44 9 -116 13 -160 3 -44 7 -95 7 -112 1 -18 3 -33 6 -33 3 0 6 -19 7 -43 2
-51 7 -87 34 -237 11 -63 22 -126 25 -140 6 -38 21 -112 27 -136 58 -238 76
-303 149 -524 66 -202 81 -229 137 -259 13 -7 34 -15 48 -17 14 -3 28 -6 32
-7 22 -6 104 30 127 56 28 32 57 114 46 132 -3 5 -7 16 -8 25 -4 26 -9 45 -15
55 -4 6 -12 28 -18 50 -7 22 -16 49 -21 60 -10 23 -53 155 -56 170 -1 6 -12
46 -24 90 -21 76 -57 216 -66 260 -2 11 -8 40 -14 65 -5 25 -12 59 -14 75 -2
17 -5 30 -6 30 -1 0 -4 14 -5 30 -2 17 -6 44 -9 60 -4 17 -9 48 -12 70 -2 22
-7 54 -9 70 -19 124 -31 256 -40 445 -12 244 -13 231 33 253 36 17 101 55 132
77 40 27 153 100 157 100 2 0 9 5 16 10 7 6 55 40 107 77 52 37 97 71 98 75 2
4 8 8 13 8 5 0 19 9 31 19 13 10 64 51 113 91 198 158 469 420 606 585 40 50
77 92 80 95 3 3 29 37 58 75 29 39 58 77 64 85 16 20 158 236 186 282 108 179
299 586 283 602 -3 3 -1 6 5 6 5 0 10 6 11 13 0 6 13 46 27 87 14 41 28 82 30
90 2 8 13 47 25 85 19 65 58 225 66 270 1 11 5 29 7 40 14 63 30 171 41 276 4
36 9 79 11 95 10 72 14 430 6 444 -8 11 -34 15 -114 16 -57 0 -108 4 -114 7
-6 4 -13 4 -16 1z"/>
<path d="M2441 5403 c-79 -16 -201 -58 -263 -89 -27 -14 -51 -25 -55 -25 -5
-1 -24 -14 -44 -30 -68 -54 -86 -130 -48 -199 45 -79 125 -96 221 -47 35 18
65 35 66 40 2 4 12 7 22 7 9 0 23 7 30 15 7 8 15 13 19 10 4 -2 18 2 32 9 33
17 110 37 151 40 19 1 39 5 45 9 5 4 13 4 17 0 3 -3 26 -6 51 -6 25 0 48 -3
51 -8 3 -5 10 -7 15 -4 13 9 119 -30 239 -87 109 -53 144 -61 194 -47 105 30
135 178 52 253 -12 10 -38 25 -58 34 -21 9 -38 20 -38 24 0 5 -11 8 -25 8 -14
0 -25 4 -25 8 0 7 -138 57 -185 67 -11 2 -49 10 -85 18 -83 17 -296 18 -379 0z"/>
</g>
</svg>
